# xmcd
#
# Track frame offsets:
#	150
#	19337
#	33646
#	49956
#	63845
#	81411
#	94980
#	110234
#	124899
#	135923
#
# Disc length: 2036 seconds
#
# Revision: 0
# Processed by: cddbd v1.5.2PL0 Copyright (c) Steve Scherf et al.
# Submitted via: EZCDAudioConverter 7.1.2.1
#
DISCID=8f07f20a
DTITLE=Laurence Jones - The Truth
DYEAR=2018
DGENRE=Blues Rock
TTITLE0=What Would You Do
TTITLE1=Don't Let Me Go 
TTITLE2=Hold Me Close
TTITLE3=Keep Me Up At Night
TTITLE4=Give Me Your Time
TTITLE5=The Truth
TTITLE6=Take Me
TTITLE7=Gone Away
TTITLE8=Can't Go On Without You
TTITLE9=Never Good Enough
EXTD=
EXTT0=
EXTT1=
EXTT2=
EXTT3=
EXTT4=
EXTT5=
EXTT6=
EXTT7=
EXTT8=
EXTT9=
PLAYORDER=
